<svg xmlns="http://www.w3.org/2000/svg" width="32" height="32" viewBox="0 0 172 172" fill="#f9dbc3"><g fill="none" stroke-miterlimit="10" font-family="none" font-weight="none" font-size="none" text-anchor="none" style="mix-blend-mode:normal"><path d="M0 172V0h172v172z"/><path d="M86 21.5c-35.559 0-64.5 28.941-64.5 64.5s28.941 64.5 64.5 64.5 64.5-28.941 64.5-64.5S121.559 21.5 86 21.5zm0 10.75c29.749 0 53.75 24.001 53.75 53.75S115.749 139.75 86 139.75 32.25 115.749 32.25 86 56.251 32.25 86 32.25zM68.3 60.7l-7.6 7.6L78.4 86l-17.7 17.7 7.6 7.6L86 93.6l17.7 17.7 7.6-7.6L93.6 86l17.7-17.7-7.6-7.6L86 78.4z" fill="#f9dbc3"/></g></svg>
