<svg xmlns="http://www.w3.org/2000/svg" x="0px" y="0px"
width="128" height="128"
viewBox="0 0 172 172"
style=" fill:#000000;"><g fill="none" fill-rule="nonzero" stroke="none" stroke-width="1" stroke-linecap="butt" stroke-linejoin="miter" stroke-miterlimit="10" stroke-dasharray="" stroke-dashoffset="0" font-family="none" font-weight="none" font-size="none" text-anchor="none" style="mix-blend-mode: normal"><path d="M0,172v-172h172v172z" fill="none"></path><g fill="#572a17"><path d="M0,27.52v116.96h92.88c1.23625,0.01344 2.39188,-0.63156 3.02344,-1.70656c0.61813,-1.075 0.61813,-2.39187 0,-3.46687c-0.63156,-1.075 -1.78719,-1.72 -3.02344,-1.70656h-86v-7.68625l48.21375,-37.53094c3.66844,3.10406 11.09938,9.48687 12.1475,10.33344c0.01344,0 0.01344,0.01344 0.02688,0.01344c5.52281,4.71656 11.43531,5.96625 15.29187,5.96625c3.85656,0 9.76906,-1.24969 15.29188,-5.96625c1.04812,-0.83312 8.47906,-7.22937 12.13406,-10.33344l9.98406,7.99531c1.47813,1.1825 3.655,0.94062 4.8375,-0.5375c1.1825,-1.49156 0.95406,-3.655 -0.5375,-4.8375l-8.93594,-7.14875c6.3425,-5.40188 9.48687,-8.02219 17.32094,-14.7275c13.06125,-11.18 21.62094,-18.53031 25.585,-21.93v48.54969c-0.01344,1.23625 0.63156,2.39188 1.70656,3.02344c1.075,0.61813 2.39187,0.61813 3.46687,0c1.075,-0.63156 1.72,-1.78719 1.70656,-3.02344v-72.24zM6.88,34.4h151.36v7.75344c-0.80625,0.68531 -14.71406,12.63125 -30.05969,25.74625c-15.77563,13.50469 -32.49188,27.74844 -34.69563,29.50875l-0.05375,0.04031l-0.04031,0.04031c-4.11188,3.52062 -8.4925,4.32687 -10.83063,4.32687c-2.33812,0 -6.71875,-0.80625 -10.83062,-4.32687l-0.04031,-0.04031l-0.05375,-0.04031c-2.20375,-1.76031 -18.92,-16.00406 -34.69563,-29.50875c-15.34562,-13.115 -29.25344,-25.06094 -30.05969,-25.74625zM6.88,51.21031c3.96406,3.39969 12.52375,10.75 25.585,21.93c7.82063,6.67844 10.93813,9.29875 17.26719,14.68719l-42.85219,33.37875zM137.6,103.2c-18.96031,0 -34.4,15.43969 -34.4,34.4c0,18.96031 15.43969,34.4 34.4,34.4c18.96031,0 34.4,-15.43969 34.4,-34.4c0,-18.96031 -15.43969,-34.4 -34.4,-34.4zM137.6,110.08c15.23813,0 27.52,12.28188 27.52,27.52c0,15.23813 -12.28187,27.52 -27.52,27.52c-15.23812,0 -27.52,-12.28187 -27.52,-27.52c0,-15.23812 12.28188,-27.52 27.52,-27.52zM152.22,121.5825l-18.5975,21.6075l-11.18,-8.385l-4.085,5.59l16.34,12.255l2.0425,-2.4725l20.64,-24.08z"></path></g></g></svg>