<svg width="170" height="173" viewBox="0 0 170 173" fill="none" xmlns="http://www.w3.org/2000/svg">
<path d="M72.1904 42.393C69.1474 42.9985 65.8154 45.0053 63.1974 49.7109C62.9217 50.205 62.5531 50.639 62.1125 50.9882C61.672 51.3373 61.1682 51.5948 60.6299 51.7458C60.0916 51.8968 59.5293 51.9384 58.9752 51.8683C58.4211 51.7982 57.886 51.6177 57.4004 51.3371C56.9148 51.0565 56.4883 50.6814 56.1453 50.233C55.8022 49.7847 55.5492 49.272 55.4008 48.7242C55.2524 48.1764 55.2115 47.6043 55.2804 47.0404C55.3493 46.4765 55.5267 45.9319 55.8024 45.4378C59.5509 38.7254 64.8804 35.0318 70.5584 33.9073C75.8416 32.892 81.3057 34.0121 85.7904 37.03C89.9044 39.798 93.2279 44.3219 93.3299 49.7455C93.4404 55.4112 90.0574 60.5234 83.8184 64.2775C79.5854 66.8206 77.9364 68.5506 77.2309 69.701C76.6359 70.6698 76.4999 71.5521 76.4999 73.5243C76.4999 74.6714 76.0522 75.7715 75.2551 76.5826C74.4581 77.3937 73.3771 77.8493 72.2499 77.8493C71.1227 77.8493 70.0417 77.3937 69.2447 76.5826C68.4477 75.7715 67.9999 74.6714 67.9999 73.5243C67.9999 71.1715 68.1189 68.2478 70.0144 65.1338C71.7994 62.2188 74.8509 59.6238 79.4919 56.8298C84.0394 54.0878 84.8639 51.4841 84.8384 49.9271C84.7959 48.1366 83.6314 45.9481 81.0984 44.2441C78.4758 42.4785 75.2832 41.815 72.1904 42.393Z" fill="#E43150"/>
<path d="M74.375 99.475C76.0658 99.475 77.6873 98.7915 78.8828 97.5749C80.0784 96.3582 80.75 94.7081 80.75 92.9875C80.75 91.2669 80.0784 89.6168 78.8828 88.4001C77.6873 87.1835 76.0658 86.5 74.375 86.5C72.6842 86.5 71.0627 87.1835 69.8672 88.4001C68.6717 89.6168 68 91.2669 68 92.9875C68 94.7081 68.6717 96.3582 69.8672 97.5749C71.0627 98.7915 72.6842 99.475 74.375 99.475Z" fill="#E43150"/>
<path d="M72.25 8.6499C62.6151 8.64762 53.1472 11.2094 44.7857 16.081C36.4243 20.9526 29.4601 27.9647 24.5842 36.4214C19.7084 44.8781 17.0904 54.4853 16.9901 64.2896C16.8898 74.094 19.3107 83.7546 24.0125 92.3127L17.255 110.322C16.6925 111.819 16.5498 113.446 16.8429 115.02C17.1359 116.595 17.8531 118.056 18.9145 119.24C19.9758 120.424 21.3396 121.285 22.8536 121.727C24.3677 122.168 25.9725 122.173 27.489 121.74L48.6285 115.711C56.1169 119.312 64.3049 121.153 72.587 121.099C80.869 121.045 89.0332 119.096 96.4754 115.398C103.918 111.699 110.448 106.346 115.582 99.7325C120.717 93.1193 124.325 85.416 126.14 77.1924C127.954 68.9688 127.928 60.4352 126.065 52.223C124.201 44.0108 120.547 36.33 115.373 29.7489C110.198 23.1677 103.636 17.8546 96.1721 14.2025C88.7078 10.5503 80.5322 8.6527 72.25 8.6499ZM25.5 64.8749C25.5038 54.5073 28.8354 44.4247 34.988 36.1612C41.1407 27.8977 49.7774 21.9057 59.5843 19.0968C69.3911 16.288 79.8311 16.8161 89.3159 20.6007C98.8007 24.3854 106.811 31.2195 112.128 40.0631C117.445 48.9068 119.778 59.2759 118.771 69.5928C117.765 79.9098 113.474 89.6097 106.552 97.2168C99.63 104.824 90.4557 109.922 80.4248 111.735C70.3939 113.547 60.0556 111.976 50.983 107.26L49.504 106.481L25.194 113.41L33.4305 91.4737L32.3425 89.6572C27.8557 82.1983 25.4873 73.6203 25.5 64.8749Z" fill="#E43150"/>
<path d="M97.4355 147.05C89.4823 147.059 81.6214 145.316 74.3924 141.942C67.1634 138.567 60.7376 133.641 55.556 127.501C60.3415 128.824 65.3565 129.585 70.516 129.724C78.3897 135.383 87.796 138.415 97.4355 138.4C105.103 138.4 112.328 136.522 118.703 133.21L120.182 132.431L144.492 139.36L136.255 117.423L137.343 115.607C141.678 108.393 144.186 99.9157 144.186 90.8246C144.199 81.2192 141.341 71.8369 135.992 63.923C135.922 58.7771 135.251 53.6579 133.994 48.6731C139.875 53.943 144.584 60.4286 147.807 67.6972C151.031 74.9657 152.694 82.8502 152.686 90.8246C152.686 100.781 150.136 110.14 145.665 118.262L152.431 136.272C152.992 137.768 153.134 139.393 152.842 140.967C152.549 142.541 151.833 144.001 150.772 145.185C149.712 146.368 148.35 147.229 146.837 147.672C145.325 148.114 143.721 148.12 142.205 147.69L121.057 141.661C113.892 145.121 105.876 147.05 97.427 147.05H97.4355Z" fill="#E43150"/>
</svg>
